<svg width="48" height="48" viewBox="0 0 48 48" xmlns="http://www.w3.org/2000/svg">
	<path d="M17.4564 9.87939H17.112C17.3014 9.87939 17.4564 9.72441 17.4564 9.53499V9.87939H30.5436V9.53499C30.5436 9.72441 30.6986 9.87939 30.888 9.87939H30.5436V12.979H33.6432V9.53499C33.6432 8.01532 32.4077 6.77979 30.888 6.77979H17.112C15.5923 6.77979 14.3568 8.01532 14.3568 9.53499V12.979H17.4564V9.87939ZM39.1536 12.979H8.84635C8.08437 12.979 7.46875 13.5946 7.46875 14.3566V15.7342C7.46875 15.9236 7.62373 16.0786 7.81315 16.0786H10.4134L11.4767 38.5938C11.5456 40.0618 12.7596 41.2199 14.2276 41.2199H33.7724C35.2447 41.2199 36.4544 40.0661 36.5233 38.5938L37.5866 16.0786H40.1868C40.3763 16.0786 40.5312 15.9236 40.5312 15.7342V14.3566C40.5312 13.5946 39.9156 12.979 39.1536 12.979ZM33.4409 38.1203H14.5591L13.5173 16.0786H34.4827L33.4409 38.1203Z" />
</svg>
