<svg width="48" height="48" viewBox="0 0 48 48" xmlns="http://www.w3.org/2000/svg">
	<path d="M24 5.66675L17.3333 12.3334H22.3333V27.3334H25.6667V12.3334H30.6667L24 5.66675ZM34 42.3334H14C13.1159 42.3334 12.2681 41.9822 11.643 41.3571C11.0178 40.732 10.6667 39.8841 10.6667 39.0001V19.0001C10.6667 18.116 11.0178 17.2682 11.643 16.6431C12.2681 16.0179 13.1159 15.6667 14 15.6667H19V19.0001H14V39.0001H34V19.0001H29V15.6667H34C34.884 15.6667 35.7319 16.0179 36.357 16.6431C36.9821 17.2682 37.3333 18.116 37.3333 19.0001V39.0001C37.3333 39.8841 36.9821 40.732 36.357 41.3571C35.7319 41.9822 34.884 42.3334 34 42.3334Z" />
</svg>
