<svg width="48" height="48" viewBox="0 0 48 48" xmlns="http://www.w3.org/2000/svg">
	<path d="M15.9218 32.0994L23.0516 32.0752L38.6135 16.6619C39.2242 16.0512 39.5603 15.2402 39.5603 14.3774C39.5603 13.5146 39.2242 12.7036 38.6135 12.0929L36.0511 9.53047C34.8297 8.30904 32.6986 8.3155 31.4869 9.52562L15.9218 24.9421V32.0994ZM33.7666 11.815L36.3338 14.3726L33.7537 16.9285L31.1912 14.3677L33.7666 11.815ZM19.1531 26.2896L28.8954 16.6393L31.4578 19.2017L21.7171 28.8488L19.1531 28.8568V26.2896Z" />
	<path d="M12.6905 38.5406H35.3095C37.0916 38.5406 38.5408 37.0914 38.5408 35.3093V21.3049L35.3095 24.5362V35.3093H17.7927C17.7507 35.3093 17.7071 35.3255 17.6651 35.3255C17.6117 35.3255 17.5584 35.3109 17.5035 35.3093H12.6905V12.6903H23.7528L26.9841 9.45898H12.6905C10.9084 9.45898 9.45918 10.9082 9.45918 12.6903V35.3093C9.45918 37.0914 10.9084 38.5406 12.6905 38.5406Z" />
</svg>
