<svg width="36" height="36" viewBox="0 0 36 36" fill="none" xmlns="http://www.w3.org/2000/svg">
<path d="M18 34.0181C27.3888 34.0181 35 26.4069 35 17.0181C35 7.62923 27.3888 0.0180664 18 0.0180664C8.61116 0.0180664 1 7.62923 1 17.0181C1 26.4069 8.61116 34.0181 18 34.0181Z" fill="#FFCB4C"/>
<path d="M14.524 21.036C14.379 20.92 14.266 20.762 14.212 20.572C14.078 20.112 14.342 19.654 14.802 19.551C19.33 18.53 22.379 20.914 22.508 21.016C22.892 21.322 22.967 21.861 22.681 22.221C22.395 22.579 21.853 22.622 21.47 22.318C21.36 22.234 18.947 20.395 15.288 21.22C15.014 21.281 14.734 21.204 14.524 21.036V21.036Z" fill="#65471B"/>
<path d="M13.119 13.8301C14.2926 13.8301 15.244 12.6409 15.244 11.1741C15.244 9.7072 14.2926 8.51807 13.119 8.51807C11.9454 8.51807 10.994 9.7072 10.994 11.1741C10.994 12.6409 11.9454 13.8301 13.119 13.8301Z" fill="#65471B"/>
<path d="M24.375 14.8921C25.5486 14.8921 26.5 13.7029 26.5 12.2361C26.5 10.7692 25.5486 9.58008 24.375 9.58008C23.2014 9.58008 22.25 10.7692 22.25 12.2361C22.25 13.7029 23.2014 14.8921 24.375 14.8921Z" fill="#65471B"/>
<path d="M17.276 35.1489C17.276 35.1489 18.541 34.7379 18.705 33.7969C18.878 32.8249 18.081 32.6299 18.081 32.6299C18.081 32.6299 19.122 32.4219 19.253 31.2539C19.376 30.1529 18.392 29.8909 18.392 29.8909C18.392 29.8909 19.362 29.4909 19.408 28.3519C19.446 27.3929 18.413 26.9239 18.413 26.9239C18.413 26.9239 23.451 25.7029 23.969 25.5829C24.485 25.4629 25.289 24.9679 25.038 23.8889C24.789 22.8089 23.834 22.7709 23.341 22.8859C22.847 23.0009 16.597 24.4519 14.441 24.9539L13.002 25.2879C12.462 25.4149 12.217 25.1779 12.598 24.7759C13.106 24.2399 13.431 23.6469 13.544 22.6629C13.663 21.6279 13.312 20.3499 13.111 19.8539C12.737 18.9329 12.106 18.2049 11.377 17.9549C10.24 17.5649 9.43201 18.2759 9.83501 19.5159C10.439 21.3699 10.043 22.8909 9.00201 23.8089C6.55301 25.9659 5.41401 27.5039 6.17201 30.7819C7.00001 34.3569 10.549 36.6579 14.124 35.8299L17.276 35.1489Z" fill="#F19020"/>
<path d="M9.29599 6.35094C9.13199 6.26294 8.99299 6.12694 8.90499 5.95194C8.68899 5.52394 8.86499 5.02494 9.29799 4.83994C13.564 3.00894 16.997 4.79694 17.141 4.87394C17.574 5.10494 17.749 5.62094 17.532 6.02794C17.316 6.43294 16.792 6.57394 16.359 6.34594C16.236 6.28294 13.527 4.91394 10.081 6.39294C9.82399 6.50194 9.53399 6.47794 9.29599 6.35094V6.35094ZM21.431 10.1009C21.275 10.0029 21.145 9.85794 21.069 9.67694C20.882 9.23494 21.092 8.74994 21.537 8.59294C25.918 7.05694 29.222 9.07294 29.36 9.15994C29.775 9.41994 29.915 9.94694 29.672 10.3379C29.43 10.7279 28.896 10.8329 28.481 10.5759C28.361 10.5039 25.754 8.95494 22.214 10.1969C21.948 10.2879 21.661 10.2429 21.431 10.1009V10.1009Z" fill="#65471B"/>
</svg>
