<svg width="22" height="22" viewBox="0 0 22 22" xmlns="http://www.w3.org/2000/svg">
	<path d="M16.1691 3.33579C15.794 2.96071 15.2853 2.75 14.7549 2.75H4.75C3.64543 2.75 2.75 3.64543 2.75 4.75V17.25C2.75 18.3546 3.64543 19.25 4.75 19.25H17.25C18.3546 19.25 19.25 18.3546 19.25 17.25V7.24509C19.25 6.71466 19.0393 6.20595 18.6642 5.83088L16.1691 3.33579ZM11 17.4167C9.47833 17.4167 8.25 16.1883 8.25 14.6667C8.25 13.145 9.47833 11.9167 11 11.9167C12.5217 11.9167 13.75 13.145 13.75 14.6667C13.75 16.1883 12.5217 17.4167 11 17.4167ZM13.75 6.41667C13.75 7.42919 12.9292 8.25 11.9167 8.25H6.41667C5.40415 8.25 4.58333 7.42919 4.58333 6.41667C4.58333 5.40415 5.40414 4.58333 6.41667 4.58333H11.9167C12.9292 4.58333 13.75 5.40415 13.75 6.41667Z" />
</svg>
