<svg width="14" height="14" viewBox="0 0 14 14" xmlns="http://www.w3.org/2000/svg">
	<path d="M6.99998 0.333252C3.32398 0.333252 0.333313 3.32392 0.333313 6.99992C0.333313 10.6759 3.32398 13.6666 6.99998 13.6666C10.676 13.6666 13.6666 10.6759 13.6666 6.99992C13.6666 3.32392 10.676 0.333252 6.99998 0.333252ZM1.66665 6.99992C1.66665 6.40059 1.77065 5.82525 1.95398 5.28725L2.99998 6.33325L4.33331 7.66659V8.99992L5.66665 10.3333L6.33331 10.9999V12.2873C3.70731 11.9573 1.66665 9.71459 1.66665 6.99992ZM11.22 10.2486C10.7846 9.89792 10.1246 9.66659 9.66665 9.66659V8.99992C9.66665 8.6463 9.52617 8.30716 9.27612 8.05711C9.02607 7.80706 8.68694 7.66659 8.33331 7.66659H5.66665V5.66659C6.02027 5.66659 6.35941 5.52611 6.60946 5.27606C6.8595 5.02601 6.99998 4.68687 6.99998 4.33325V3.66659H7.66665C8.02027 3.66659 8.35941 3.52611 8.60946 3.27606C8.8595 3.02601 8.99998 2.68687 8.99998 2.33325V2.05925C10.952 2.85192 12.3333 4.76659 12.3333 6.99992C12.3332 8.17638 11.9415 9.31934 11.22 10.2486Z" />
</svg>
