<svg width="48" height="48" viewBox="0 0 48 48" xmlns="http://www.w3.org/2000/svg">
	<path d="M19.2023 24.0001C19.2023 25.2286 19.6903 26.4069 20.559 27.2756C21.4278 28.1444 22.606 28.6324 23.8346 28.6324C25.0632 28.6324 26.2414 28.1444 27.1102 27.2756C27.9789 26.4069 28.467 25.2286 28.467 24.0001C28.467 22.7715 27.9789 21.5932 27.1102 20.7245C26.2414 19.8558 25.0632 19.3677 23.8346 19.3677C22.606 19.3677 21.4278 19.8558 20.559 20.7245C19.6903 21.5932 19.2023 22.7715 19.2023 24.0001V24.0001ZM41.7933 22.933C37.8723 14.6733 31.9454 10.5166 24.0001 10.5166C16.0506 10.5166 10.1278 14.6733 6.20685 22.9371C6.04958 23.2701 5.96802 23.6338 5.96802 24.0021C5.96802 24.3704 6.04958 24.7341 6.20685 25.0672C10.1278 33.3268 16.0547 37.4835 24.0001 37.4835C31.9495 37.4835 37.8723 33.3268 41.7933 25.063C42.1117 24.393 42.1117 23.6154 41.7933 22.933V22.933ZM23.8346 31.2795C19.8144 31.2795 16.5552 28.0203 16.5552 24.0001C16.5552 19.9798 19.8144 16.7206 23.8346 16.7206C27.8548 16.7206 31.114 19.9798 31.114 24.0001C31.114 28.0203 27.8548 31.2795 23.8346 31.2795Z" />
</svg>
