<svg width="48" height="48" viewBox="0 0 48 48" xmlns="http://www.w3.org/2000/svg">
	<path d="M23.8346 28.6324C25.0632 28.6324 26.2414 28.1443 27.1102 27.2756C27.9789 26.4069 28.467 25.2286 28.467 24C28.467 23.8644 28.4608 23.73 28.4492 23.5972L23.4318 28.6146C23.5645 28.6262 23.6985 28.6324 23.8346 28.6324ZM39.1677 9.67118L37.4008 7.90592C37.3387 7.84391 37.2546 7.80908 37.1669 7.80908C37.0792 7.80908 36.9951 7.84391 36.933 7.90592L32.4115 12.4287C29.9172 11.1539 27.1134 10.5166 24.0001 10.5166C16.0506 10.5166 10.1195 14.6567 6.20685 22.9371C6.04958 23.2701 5.96802 23.6338 5.96802 24.0021C5.96802 24.3704 6.04958 24.7341 6.20685 25.0671C7.77027 28.3602 9.65286 30.9997 11.8546 32.9856L7.4791 37.3594C7.41709 37.4215 7.38226 37.5056 7.38226 37.5933C7.38226 37.681 7.41709 37.7651 7.4791 37.8272L9.24477 39.5929C9.30681 39.6549 9.39094 39.6897 9.47866 39.6897C9.56638 39.6897 9.65051 39.6549 9.71255 39.5929L39.1677 10.1394C39.1985 10.1086 39.2229 10.0722 39.2395 10.032C39.2562 9.99181 39.2647 9.94876 39.2647 9.90528C39.2647 9.86179 39.2562 9.81874 39.2395 9.77857C39.2229 9.7384 39.1985 9.70191 39.1677 9.67118ZM16.5552 24C16.5551 22.7427 16.8806 21.5068 17.5001 20.4127C18.1197 19.3186 19.012 18.4036 20.0902 17.7568C21.1685 17.1101 22.3958 16.7536 23.6528 16.7222C24.9097 16.6908 26.1534 16.9855 27.2626 17.5776L25.2516 19.5885C24.4406 19.3289 23.5738 19.2976 22.7462 19.4982C21.9186 19.6987 21.1622 20.1234 20.5601 20.7255C19.9579 21.3276 19.5333 22.084 19.3327 22.9116C19.1322 23.7392 19.1634 24.606 19.4231 25.417L17.4122 27.428C16.8479 26.3736 16.5534 25.1959 16.5552 24V24Z" />
	<path d="M41.7932 22.9328C40.3373 19.8666 38.6044 17.3664 36.5946 15.4321L30.6329 21.3942C31.1355 22.7079 31.2468 24.139 30.9536 25.5146C30.6604 26.8902 29.9751 28.1514 28.9806 29.146C27.986 30.1405 26.7248 30.8258 25.3492 31.119C23.9736 31.4122 22.5425 31.3008 21.2288 30.7983L16.1721 35.855C18.5181 36.9406 21.1274 37.4834 24 37.4834C31.9494 37.4834 37.8805 33.3432 41.7932 25.0629C41.9505 24.7299 42.032 24.3661 42.032 23.9978C42.032 23.6296 41.9505 23.2658 41.7932 22.9328V22.9328Z" />
</svg>
