<svg width="14" height="14" viewBox="0 0 14 14" xmlns="http://www.w3.org/2000/svg">
	<g>
		<path d="M0.583313 5.25011L1.74998 6.41677C4.64915 3.51761 9.35081 3.51761 12.25 6.41677L13.4166 5.25011C9.87581 1.70927 4.12998 1.70927 0.583313 5.25011ZM5.24998 9.91677L6.99998 11.6668L8.74998 9.91677C8.52039 9.68657 8.24763 9.50392 7.94733 9.3793C7.64704 9.25468 7.32511 9.19053 6.99998 9.19053C6.67485 9.19053 6.35292 9.25468 6.05262 9.3793C5.75233 9.50392 5.47957 9.68657 5.24998 9.91677ZM2.91665 7.58344L4.08331 8.75011C4.85708 7.97698 5.90616 7.54269 6.99998 7.54269C8.0938 7.54269 9.14288 7.97698 9.91665 8.75011L11.0833 7.58344C8.83165 5.33177 5.17415 5.33177 2.91665 7.58344Z" />
	</g>
</svg>
