<svg width="14" height="14" viewBox="0 0 14 14" xmlns="http://www.w3.org/2000/svg">
	<g>
		<path d="M6.125 12.25C6.125 12.25 5.25 12.25 5.25 11.375C5.25 10.5 6.125 7.875 9.625 7.875C13.125 7.875 14 10.5 14 11.375C14 12.25 13.125 12.25 13.125 12.25H6.125ZM9.625 7C10.3212 7 10.9889 6.72344 11.4812 6.23116C11.9734 5.73887 12.25 5.07119 12.25 4.375C12.25 3.67881 11.9734 3.01113 11.4812 2.51884C10.9889 2.02656 10.3212 1.75 9.625 1.75C8.92881 1.75 8.26113 2.02656 7.76884 2.51884C7.27656 3.01113 7 3.67881 7 4.375C7 5.07119 7.27656 5.73887 7.76884 6.23116C8.26113 6.72344 8.92881 7 9.625 7Z" />
		<path fill-rule="evenodd" clip-rule="evenodd" d="M4.564 12.2499C4.43429 11.9767 4.3696 11.6772 4.375 11.3749C4.375 10.1893 4.97 8.96864 6.069 8.11989C5.52045 7.95087 4.94895 7.86821 4.375 7.87489C0.875 7.87489 0 10.4999 0 11.3749C0 12.2499 0.875 12.2499 0.875 12.2499H4.564Z" />
		<path d="M3.9375 7C4.51766 7 5.07406 6.76953 5.4843 6.3593C5.89453 5.94906 6.125 5.39266 6.125 4.8125C6.125 4.23234 5.89453 3.67594 5.4843 3.2657C5.07406 2.85547 4.51766 2.625 3.9375 2.625C3.35734 2.625 2.80094 2.85547 2.3907 3.2657C1.98047 3.67594 1.75 4.23234 1.75 4.8125C1.75 5.39266 1.98047 5.94906 2.3907 6.3593C2.80094 6.76953 3.35734 7 3.9375 7Z" />
	</g>
</svg>
