<svg width="32" height="32" viewBox="0 0 32 32" xmlns="http://www.w3.org/2000/svg">
	<g>
		<path fill-rule="evenodd" clip-rule="evenodd" d="M8.00004 16C8.00004 15.7347 8.1054 15.4804 8.29294 15.2928C8.48047 15.1053 8.73483 15 9.00004 15L20.586 15L16.292 10.708C16.1991 10.615 16.1253 10.5046 16.075 10.3831C16.0247 10.2616 15.9988 10.1314 15.9988 9.99996C15.9988 9.86847 16.0247 9.73827 16.075 9.61679C16.1253 9.49531 16.1991 9.38493 16.292 9.29196C16.385 9.19898 16.4954 9.12523 16.6169 9.07491C16.7384 9.02459 16.8686 8.99869 17 8.99869C17.1315 8.99869 17.2617 9.02459 17.3832 9.07491C17.5047 9.12523 17.6151 9.19898 17.708 9.29196L23.708 15.292C23.8012 15.3848 23.8751 15.4952 23.9255 15.6167C23.9759 15.7382 24.0018 15.8684 24.0018 16C24.0018 16.1315 23.9759 16.2617 23.9255 16.3832C23.8751 16.5047 23.8012 16.6151 23.708 16.708L17.708 22.708C17.5203 22.8957 17.2656 23.0012 17 23.0012C16.7345 23.0012 16.4798 22.8957 16.292 22.708C16.1043 22.5202 15.9988 22.2655 15.9988 22C15.9988 21.7344 16.1043 21.4797 16.292 21.292L20.586 17L9.00004 17C8.73483 17 8.48047 16.8946 8.29294 16.7071C8.1054 16.5195 8.00004 16.2652 8.00004 16Z" />
	</g>
</svg>
