<svg width="14" height="14" viewBox="0 0 14 14" xmlns="http://www.w3.org/2000/svg">
<g clip-path="url(#clip0_706_711)">
<path d="M13.4531 8.77891L12.4297 7.90391C12.4781 7.60704 12.5031 7.30391 12.5031 7.00079C12.5031 6.69766 12.4781 6.39454 12.4297 6.09766L13.4531 5.22266C13.5303 5.15658 13.5856 5.06856 13.6115 4.97031C13.6375 4.87207 13.6329 4.76825 13.5984 4.67266L13.5844 4.63203C13.3026 3.84457 12.8807 3.11459 12.3391 2.47735L12.3109 2.44453C12.2452 2.36727 12.1577 2.31173 12.0597 2.28523C11.9618 2.25873 11.8582 2.26252 11.7625 2.2961L10.4922 2.74766C10.0234 2.36328 9.5 2.06016 8.93438 1.84766L8.68906 0.519532C8.67056 0.419597 8.62208 0.32766 8.55007 0.255934C8.47807 0.184208 8.38594 0.136089 8.28594 0.117969L8.24375 0.110156C7.42969 -0.0367188 6.57344 -0.0367188 5.75938 0.110156L5.71719 0.117969C5.61718 0.136089 5.52506 0.184208 5.45305 0.255934C5.38105 0.32766 5.33257 0.419597 5.31406 0.519532L5.06719 1.85391C4.50608 2.06645 3.98354 2.36942 3.52032 2.75078L2.24063 2.2961C2.14495 2.26225 2.04124 2.25833 1.94328 2.28484C1.84531 2.31136 1.75774 2.36706 1.69219 2.44453L1.66407 2.47735C1.12304 3.11504 0.701216 3.8449 0.418753 4.63203L0.404691 4.67266C0.334378 4.86797 0.392191 5.08672 0.550003 5.22266L1.58594 6.10704C1.5375 6.40079 1.51407 6.70079 1.51407 6.99922C1.51407 7.29922 1.5375 7.59922 1.58594 7.89141L0.550003 8.77579C0.472809 8.84187 0.41756 8.92989 0.391603 9.02813C0.365646 9.12638 0.370211 9.2302 0.404691 9.32579L0.418753 9.36641C0.701566 10.1539 1.12032 10.8805 1.66407 11.5211L1.69219 11.5539C1.7579 11.6312 1.84548 11.6867 1.94338 11.7132C2.04128 11.7397 2.14492 11.7359 2.24063 11.7024L3.52032 11.2477C3.98594 11.6305 4.50625 11.9336 5.06719 12.1445L5.31406 13.4789C5.33257 13.5789 5.38105 13.6708 5.45305 13.7425C5.52506 13.8142 5.61718 13.8624 5.71719 13.8805L5.75938 13.8883C6.58092 14.036 7.42221 14.036 8.24375 13.8883L8.28594 13.8805C8.38594 13.8624 8.47807 13.8142 8.55007 13.7425C8.62208 13.6708 8.67056 13.5789 8.68906 13.4789L8.93438 12.1508C9.49977 11.9388 10.0262 11.6347 10.4922 11.2508L11.7625 11.7024C11.8582 11.7362 11.9619 11.7401 12.0599 11.7136C12.1578 11.6871 12.2454 11.6314 12.3109 11.5539L12.3391 11.5211C12.8828 10.8789 13.3016 10.1539 13.5844 9.36641L13.5984 9.32579C13.6687 9.1336 13.6109 8.91485 13.4531 8.77891V8.77891ZM11.3203 6.28204C11.3594 6.51797 11.3797 6.76016 11.3797 7.00235C11.3797 7.24454 11.3594 7.48672 11.3203 7.72266L11.2172 8.34923L12.3844 9.34766C12.2074 9.7553 11.9841 10.1412 11.7188 10.4977L10.2688 9.9836L9.77813 10.3867C9.40469 10.693 8.98906 10.9336 8.53906 11.1024L7.94375 11.3258L7.66406 12.8414C7.22277 12.8914 6.77724 12.8914 6.33594 12.8414L6.05625 11.3227L5.46563 11.0961C5.02031 10.9274 4.60625 10.6867 4.23594 10.382L3.74531 9.97735L2.28594 10.4961C2.02032 10.1383 1.79844 9.75235 1.62032 9.3461L2.8 8.33829L2.69844 7.71329C2.66094 7.48047 2.64063 7.23985 2.64063 7.00235C2.64063 6.76329 2.65938 6.52422 2.69844 6.29141L2.8 5.66641L1.62032 4.6586C1.79688 4.25078 2.02032 3.86641 2.28594 3.5086L3.74531 4.02735L4.23594 3.62266C4.60625 3.31797 5.02031 3.07735 5.46563 2.9086L6.05781 2.68516L6.3375 1.16641C6.77656 1.11641 7.225 1.11641 7.66563 1.16641L7.94531 2.68203L8.54063 2.90547C8.98906 3.07422 9.40625 3.31485 9.77969 3.6211L10.2703 4.02422L11.7203 3.51016C11.9859 3.86797 12.2078 4.25391 12.3859 4.66016L11.2188 5.6586L11.3203 6.28204ZM7.00313 4.0961C5.48438 4.0961 4.25313 5.32735 4.25313 6.8461C4.25313 8.36485 5.48438 9.5961 7.00313 9.5961C8.52188 9.5961 9.75313 8.36485 9.75313 6.8461C9.75313 5.32735 8.52188 4.0961 7.00313 4.0961ZM8.24063 8.0836C8.07832 8.24638 7.88543 8.37545 7.67305 8.46341C7.46067 8.55136 7.233 8.59646 7.00313 8.5961C6.53594 8.5961 6.09688 8.41329 5.76563 8.0836C5.60285 7.92129 5.47377 7.7284 5.38582 7.51602C5.29786 7.30364 5.25277 7.07597 5.25313 6.8461C5.25313 6.37891 5.43594 5.93985 5.76563 5.6086C6.09688 5.27735 6.53594 5.0961 7.00313 5.0961C7.47031 5.0961 7.90938 5.27735 8.24063 5.6086C8.4034 5.77091 8.53248 5.9638 8.62043 6.17618C8.70839 6.38856 8.75348 6.61623 8.75313 6.8461C8.75313 7.31329 8.57031 7.75235 8.24063 8.0836Z"/>
</g>
<defs>
<clipPath id="clip0_706_711">
<rect width="14" height="14" fill="white"/>
</clipPath>
</defs>
</svg>
