<svg width="14" height="14" viewBox="0 0 14 14" xmlns="http://www.w3.org/2000/svg">
	<path d="M12.2719 2.50894L2.50198 12.2789C2.39944 12.3814 2.23401 12.3814 2.13147 12.2789L1.72815 11.8755C1.62561 11.773 1.62561 11.6076 1.72815 11.505L11.4981 1.73511C11.6006 1.63257 11.766 1.63257 11.8686 1.73511L12.2719 2.13843C12.3744 2.2396 12.3744 2.4064 12.2719 2.50894Z"/>
	<path d="M2.50198 1.73511L12.2733 11.5064C12.3758 11.6089 12.3758 11.7744 12.2733 11.8769L11.8699 12.2802C11.7674 12.3828 11.602 12.3828 11.4994 12.2802L1.72815 2.50894C1.62561 2.4064 1.62561 2.24097 1.72815 2.13843L2.13147 1.73511C2.23264 1.63257 2.39944 1.63257 2.50198 1.73511Z"/>
</svg>
